# xmcd CD database file
#
# Track frame offsets:
#	150
#	15554
#	33343
#	56541
#	73749
#	91419
#	108211
#	122765
#	137971
#	153986
#	168497
#	183775
#
# Disc length: 2494 seconds
#
# Revision: 0
# Processed by: cddbd v1.5.1PL0 Copyright (c) Steve Scherf et al.
# Submitted via: CDex 1.51
#
DISCID=9909bc0c
DTITLE=Gary Hall and the Storm Keepers - Return to the Flame
DYEAR=1998
DGENRE=Country
TTITLE0=Small Price to Pay
TTITLE1=Travelling Shoes
TTITLE2=Some Cry Words
TTITLE3=Red Dirt Roads
TTITLE4=Dark Clouds Rollin' In
TTITLE5=Claim on Me
TTITLE6=Ten Days Down
TTITLE7=Acklen Avenue
TTITLE8=The Whole World's Gone Crazy
TTITLE9=Caught in the Flames
TTITLE10=The First Shots
TTITLE11=Acklen Avenue (Reprise)
EXTD=YEAR: 1998
EXTT0=
EXTT1=
EXTT2=
EXTT3=
EXTT4=
EXTT5=
EXTT6=
EXTT7=
EXTT8=
EXTT9=
EXTT10=
EXTT11=
PLAYORDER=
